<svg width="111" height="48" viewBox="0 0 111 48" fill="none" xmlns="http://www.w3.org/2000/svg">
<path d="M23.4252 34.64C22.4652 34.64 21.7585 34.4 21.3052 33.92C20.8518 33.4133 20.4652 32.6667 20.1452 31.68C19.8252 30.6667 19.1985 27.9733 18.2652 23.6C17.6518 24.1333 16.6518 24.4267 15.2652 24.48L8.42516 24.72C6.79849 28.6933 5.59849 32.2267 4.82516 35.32C2.26516 34.4133 0.985156 33.3867 0.985156 32.24C0.985156 31.7333 1.75849 29.84 3.30516 26.56C4.85182 23.28 6.59849 19.56 8.54516 15.4C10.5185 11.2133 11.8518 8.17333 12.5452 6.28L13.2652 4.32C13.0518 3.94666 12.5318 3.26666 11.7052 2.28C12.6652 1.96 13.4918 1.8 14.1852 1.8C14.9052 1.8 15.4918 1.85333 15.9452 1.96C16.4252 2.06666 16.8385 2.25333 17.1852 2.52C17.5585 2.76 17.8785 3.01333 18.1452 3.28C18.4385 3.54667 18.7052 3.94667 18.9452 4.48C19.1852 4.98667 19.3852 5.45333 19.5452 5.88C19.7052 6.28 19.8785 6.85333 20.0652 7.6C20.2785 8.34667 20.4385 9 20.5452 9.56C20.6785 10.0933 20.8385 10.8533 21.0252 11.84C21.2385 12.8 21.4518 13.7333 21.6652 14.64C21.8785 15.5467 22.2518 17.28 22.7852 19.84C23.3185 22.3733 23.7318 24.28 24.0252 25.56C24.3452 26.8133 24.7852 28.2267 25.3452 29.8C25.9318 31.3733 26.5452 32.6133 27.1852 33.52C25.6385 34.2667 24.3852 34.64 23.4252 34.64ZM15.1052 9.64C14.7318 10.4933 13.9052 12.32 12.6252 15.12C11.3718 17.8933 10.3985 20.1067 9.70516 21.76H17.9052C16.6518 16 15.7185 11.96 15.1052 9.64ZM54.5264 3.88C54.7397 4.30667 54.8597 4.70666 54.8864 5.08C54.9397 5.45333 54.9664 6.13333 54.9664 7.12C54.9664 8.10666 54.5264 11.6133 53.6464 17.64C52.7664 23.6667 52.3264 27.8933 52.3264 30.32C52.3264 32.72 52.5131 34.36 52.8864 35.24C50.6197 34.6533 49.0731 33.88 48.2464 32.92C47.4197 31.9333 47.0064 30.5733 47.0064 28.84C47.0064 28.3067 47.0197 27.8933 47.0464 27.6C44.6197 32.4 41.2997 34.8 37.0864 34.8C34.8464 34.8 33.1664 34.04 32.0464 32.52C30.9264 30.9733 30.3664 28.5333 30.3664 25.2C30.3664 23.3067 30.6597 19.8933 31.2464 14.96C31.8597 10.0267 32.1664 6.82667 32.1664 5.36C32.1664 3.86667 32.0197 2.72 31.7264 1.92C33.9397 2.48 35.4597 3.22667 36.2864 4.16C37.1397 5.06667 37.5664 6.36 37.5664 8.04C37.5664 9.69333 37.2997 12.3467 36.7664 16C36.2331 19.6267 35.9664 22.56 35.9664 24.8C35.9664 27.0133 36.2864 28.5867 36.9264 29.52C37.5664 30.4533 38.4597 30.92 39.6064 30.92C40.9664 30.92 42.2864 30.32 43.5664 29.12C46.1797 26.64 47.8864 21.88 48.6864 14.84V14.76C49.1131 11.0533 49.3264 8.33333 49.3264 6.6C49.3264 4.86666 49.2731 3.30666 49.1664 1.92C51.1931 2.02667 52.6731 2.34666 53.6064 2.88C54.0064 3.09333 54.3131 3.42667 54.5264 3.88ZM65.0417 34.68C63.5217 34.68 62.4284 34.4133 61.7617 33.88C61.0951 33.3467 60.7617 32.4533 60.7617 31.2C60.7617 29.9467 61.2017 26.16 62.0817 19.84C62.9884 13.4933 63.4417 8.97333 63.4417 6.28C63.4417 3.56 63.2551 1.78667 62.8817 0.959999C65.5751 1.17333 67.3617 2.22667 68.2417 4.12C70.1617 3.05333 72.3351 2.52 74.7617 2.52C77.2151 2.52 79.2151 3.22666 80.7617 4.64C82.3351 6.02667 83.1217 7.64 83.1217 9.48C83.1217 11.32 82.4951 13.16 81.2417 15C79.9884 16.8133 78.1217 18.1867 75.6417 19.12L76.1617 20.68C77.1217 23.6667 78.5084 26.6267 80.3217 29.56C82.1351 32.4667 83.6151 34.4533 84.7617 35.52C83.7751 35.7867 82.7884 35.92 81.8017 35.92C80.8417 35.92 79.8684 35.6 78.8817 34.96C77.8951 34.3467 77.0684 33.6667 76.4017 32.92C75.7617 32.1733 75.0417 30.9867 74.2417 29.36C73.4417 27.7333 72.8684 26.4667 72.5217 25.56C72.1751 24.6533 71.7884 23.6533 71.3617 22.56C70.9617 21.4667 70.7484 20.88 70.7217 20.8C70.6951 20.72 70.6551 20.6267 70.6017 20.52C70.5484 20.3867 70.5084 20.2667 70.4817 20.16C69.8951 20.16 69.3217 20.16 68.7617 20.16L68.6417 18.32C72.0284 18.1867 74.5484 16.9733 76.2017 14.68C77.1084 13.4 77.5617 12.0933 77.5617 10.76C77.5617 10.2533 77.5084 9.76 77.4017 9.28C76.9484 7.54667 75.8684 6.46667 74.1617 6.04C73.6817 5.90666 73.0151 5.84 72.1617 5.84C71.3084 5.84 70.1751 6.12 68.7617 6.68C68.7617 7.69333 68.3751 11.0133 67.6017 16.64C66.8551 22.24 66.4817 26.92 66.4817 30.68C66.4817 32.36 66.5617 33.6667 66.7217 34.6C65.8684 34.6533 65.3084 34.68 65.0417 34.68ZM95.9539 44.24C100.407 44.24 102.941 39 103.554 28.52C102.567 29.9333 101.381 31.0133 99.9939 31.76C98.6072 32.48 97.1806 32.84 95.7139 32.84C93.1539 32.84 90.9539 31.8 89.1139 29.72C87.2739 27.64 86.3539 24.7467 86.3539 21.04C86.3539 15.9467 87.6739 11.52 90.3139 7.76C91.5939 5.92 93.2472 4.46667 95.2739 3.4C97.3006 2.30666 99.6072 1.76 102.194 1.76C104.807 1.76 106.794 2.44 108.154 3.8C109.541 5.13333 110.234 6.78666 110.234 8.76C110.234 10.7333 109.621 12.2933 108.394 13.44C107.167 14.5867 105.714 15.16 104.034 15.16C102.941 15.16 101.901 14.8933 100.914 14.36C99.9272 13.8267 99.1672 13.0533 98.6339 12.04C99.3539 12.2267 100.034 12.32 100.674 12.32C102.114 12.32 103.247 11.9067 104.074 11.08C104.927 10.2533 105.354 9.32 105.354 8.28C105.354 7.24 105.007 6.38667 104.314 5.72C103.621 5.02667 102.634 4.68 101.354 4.68C99.6739 4.68 98.1406 5.54667 96.7539 7.28C95.3939 8.98667 94.3672 11.0667 93.6739 13.52C92.9806 15.9467 92.6339 18.4667 92.6339 21.08C92.6339 23.6933 93.1406 25.7467 94.1539 27.24C95.1939 28.7067 96.4472 29.44 97.9139 29.44C99.3806 29.44 100.647 28.72 101.714 27.28C102.807 25.84 103.354 23.8933 103.354 21.44C103.354 20.8267 103.314 20.2 103.234 19.56V19.44C103.821 19.3867 104.434 19.36 105.074 19.36C106.621 19.36 107.687 19.6267 108.274 20.16C108.887 20.6667 109.194 21.5467 109.194 22.8C109.194 30.9333 107.741 37.28 104.834 41.84C103.821 43.4133 102.501 44.6933 100.874 45.68C99.2472 46.6667 97.4072 47.16 95.3539 47.16C92.5539 47.16 90.4472 46.44 89.0339 45C87.6472 43.5867 86.9539 41.96 86.9539 40.12C86.9539 38.28 87.4472 36.8 88.4339 35.68C89.4206 34.5867 90.6472 34.04 92.1139 34.04C92.9139 34.04 93.7939 34.2667 94.7539 34.72C93.3406 36.5067 92.6339 38.3867 92.6339 40.36C92.6339 41.5067 92.9006 42.44 93.4339 43.16C93.9672 43.88 94.8072 44.24 95.9539 44.24Z" fill="white"/>
</svg>
