<svg width="160" height="160" viewBox="0 0 160 160" fill="none" xmlns="http://www.w3.org/2000/svg">
<path d="M109 46H141C146.523 46 151 50.4772 151 56V93.3811C151 98.904 146.523 103.381 141 103.381H109V46Z" fill="white"/>
<path d="M112.522 58.5938C112.48 57.0729 112.73 55.6771 113.272 54.4062C113.834 53.1354 114.74 52.0417 115.99 51.125C117.24 50.2083 118.865 49.4896 120.865 48.9688C122.865 48.4479 125.293 48.1875 128.147 48.1875H137.459C138.168 48.1875 138.709 48.2292 139.084 48.3125C139.459 48.375 139.73 48.5312 139.897 48.7812C140.084 49.0312 140.188 49.3854 140.209 49.8438C140.23 50.3021 140.24 50.9167 140.24 51.6875C140.24 52.3125 140.209 52.8125 140.147 53.1875C140.084 53.5625 139.98 53.8542 139.834 54.0625C139.709 54.2708 139.522 54.4062 139.272 54.4688C139.043 54.5312 138.74 54.5625 138.365 54.5625H128.115C127.345 54.5417 126.668 54.5729 126.084 54.6562C125.522 54.7188 125.053 54.8958 124.678 55.1875C124.303 55.4792 124.022 55.9062 123.834 56.4688C123.647 57.0104 123.543 57.7396 123.522 58.6562L122.584 91.75C122.563 92.625 122.626 93.3542 122.772 93.9375C122.938 94.5208 123.199 94.9896 123.553 95.3438C123.907 95.6771 124.365 95.9167 124.928 96.0625C125.511 96.2083 126.209 96.2812 127.022 96.2812C127.834 96.2812 128.522 96.2083 129.084 96.0625C129.668 95.9167 130.136 95.6771 130.49 95.3438C130.865 94.9896 131.126 94.5208 131.272 93.9375C131.418 93.3542 131.48 92.625 131.459 91.75L130.897 71.6875C130.876 71.0625 130.938 70.5625 131.084 70.1875C131.23 69.7917 131.501 69.5 131.897 69.3125C132.313 69.1042 132.876 68.9688 133.584 68.9062C134.293 68.8438 135.188 68.8125 136.272 68.8125C137.355 68.8125 138.23 68.8438 138.897 68.9062C139.563 68.9688 140.063 69.1042 140.397 69.3125C140.751 69.5 140.98 69.7917 141.084 70.1875C141.188 70.5625 141.23 71.0625 141.209 71.6875L140.647 91.5312C140.605 92.8854 140.324 94.1667 139.803 95.375C139.282 96.5625 138.48 97.6042 137.397 98.5C136.313 99.3958 134.918 100.104 133.209 100.625C131.501 101.125 129.438 101.375 127.022 101.375C124.605 101.375 122.543 101.115 120.834 100.594C119.126 100.073 117.73 99.3646 116.647 98.4688C115.563 97.5729 114.761 96.5208 114.24 95.3125C113.72 94.1042 113.438 92.8229 113.397 91.4688L112.522 58.5938Z" fill="black"/>
<path d="M12.0938 49.8438C12.1771 49.2604 12.3125 48.7812 12.5 48.4062C12.7083 48.0312 13.0729 47.7396 13.5938 47.5312C14.1354 47.3229 14.9062 47.1875 15.9062 47.125C16.9062 47.0417 18.2604 47 19.9688 47C21.6562 47 23 47.0417 24 47.125C25 47.1875 25.7604 47.3229 26.2812 47.5312C26.8229 47.7396 27.1875 48.0312 27.375 48.4062C27.5625 48.7812 27.7083 49.2604 27.8125 49.8438L36.0938 97.5625C36.1771 98.125 36.1667 98.5729 36.0625 98.9062C35.9792 99.2188 35.7708 99.4583 35.4375 99.625C35.125 99.7917 34.6875 99.8958 34.125 99.9375C33.5625 99.9792 32.875 100 32.0625 100C31.0625 100 30.2604 99.9792 29.6562 99.9375C29.0729 99.8958 28.6146 99.7917 28.2812 99.625C27.9479 99.4583 27.6979 99.2188 27.5312 98.9062C27.3854 98.5729 27.2708 98.125 27.1875 97.5625L25.9062 90.0938H14L12.7188 97.5625C12.6146 98.125 12.4896 98.5729 12.3438 98.9062C12.1979 99.2188 11.9583 99.4583 11.625 99.625C11.2917 99.7917 10.8229 99.8958 10.2188 99.9375C9.63542 99.9792 8.84375 100 7.84375 100C7.03125 100 6.34375 99.9792 5.78125 99.9375C5.23958 99.8958 4.80208 99.7917 4.46875 99.625C4.13542 99.4583 3.91667 99.2188 3.8125 98.9062C3.70833 98.5729 3.70833 98.125 3.8125 97.5625L12.0938 49.8438ZM24.875 84.1562L20.0938 56.4375H19.8125L15.0312 84.1562H24.875ZM40.2812 49.7812C40.2604 49.2396 40.3125 48.8021 40.4375 48.4688C40.5625 48.1354 40.8229 47.875 41.2188 47.6875C41.6354 47.5 42.2188 47.375 42.9688 47.3125C43.7396 47.2292 44.7396 47.1875 45.9688 47.1875C47.1979 47.1875 48.1875 47.2292 48.9375 47.3125C49.6875 47.375 50.2604 47.5 50.6562 47.6875C51.0729 47.875 51.3438 48.1354 51.4688 48.4688C51.6146 48.8021 51.6771 49.2396 51.6562 49.7812L50.5938 90.75C50.5729 91.625 50.6458 92.3542 50.8125 92.9375C51 93.5208 51.2917 93.9896 51.6875 94.3438C52.1042 94.6771 52.6354 94.9167 53.2812 95.0625C53.9271 95.2083 54.7083 95.2812 55.625 95.2812C56.5417 95.2812 57.3229 95.2083 57.9688 95.0625C58.6146 94.9167 59.1354 94.6771 59.5312 94.3438C59.9479 93.9896 60.2396 93.5208 60.4062 92.9375C60.5938 92.3542 60.6771 91.625 60.6562 90.75L59.5625 49.7812C59.5417 49.2396 59.5938 48.8021 59.7188 48.4688C59.8438 48.1354 60.1042 47.875 60.5 47.6875C60.9167 47.5 61.5 47.375 62.25 47.3125C63 47.2292 64 47.1875 65.25 47.1875C66.4792 47.1875 67.4688 47.2292 68.2188 47.3125C68.9688 47.375 69.5417 47.5 69.9375 47.6875C70.3542 47.875 70.625 48.1354 70.75 48.4688C70.8958 48.8021 70.9583 49.2396 70.9375 49.7812L69.8438 90.4688C69.8021 91.8229 69.5104 93.1042 68.9688 94.3125C68.4271 95.5208 67.5833 96.5729 66.4375 97.4688C65.3125 98.3646 63.8542 99.0729 62.0625 99.5938C60.2917 100.115 58.1458 100.375 55.625 100.375C53.1042 100.375 50.9479 100.115 49.1562 99.5938C47.3646 99.0729 45.8958 98.3646 44.75 97.4688C43.625 96.5729 42.7917 95.5208 42.25 94.3125C41.7083 93.1042 41.4271 91.8229 41.4062 90.4688L40.2812 49.7812ZM78.3125 49.7812C78.2917 49.2396 78.3438 48.8021 78.4688 48.4688C78.5938 48.1354 78.8542 47.875 79.25 47.6875C79.6667 47.5 80.25 47.375 81 47.3125C81.75 47.2292 82.75 47.1875 84 47.1875H84.7812H91.9062C94.0521 47.1875 96.0417 47.3854 97.875 47.7812C99.7292 48.1562 101.333 48.7604 102.688 49.5938C104.042 50.4062 105.094 51.4583 105.844 52.75C106.615 54.0208 106.969 55.5625 106.906 57.375L106.5 72.2188C106.479 73.0104 106.354 73.8125 106.125 74.625C105.917 75.4375 105.583 76.2188 105.125 76.9688C104.667 77.6979 104.073 78.3854 103.344 79.0312C102.635 79.6771 101.76 80.2396 100.719 80.7188L106.562 95.5625C106.854 96.3125 107.073 96.9271 107.219 97.4062C107.385 97.8646 107.469 98.2604 107.469 98.5938C107.469 98.8438 107.427 99.0625 107.344 99.25C107.26 99.4167 107.073 99.5625 106.781 99.6875C106.51 99.7917 106.115 99.875 105.594 99.9375C105.073 99.9792 104.385 100 103.531 100C102.698 100 102.021 99.9688 101.5 99.9062C101 99.8229 100.583 99.6875 100.25 99.5C99.9167 99.3125 99.6354 99.0625 99.4062 98.75C99.1979 98.4167 98.9688 98 98.7188 97.5L92.1875 82.1875H88.75L88.3125 97.875C88.3125 98.3542 88.2604 98.7396 88.1562 99.0312C88.0729 99.3021 87.875 99.5104 87.5625 99.6562C87.2708 99.8021 86.8438 99.8958 86.2812 99.9375C85.7188 99.9792 84.9583 100 84 100C83.0417 100 82.2708 99.9792 81.6875 99.9375C81.125 99.8958 80.6979 99.8021 80.4062 99.6562C80.1146 99.5104 79.9167 99.3021 79.8125 99.0312C79.7292 98.7396 79.6771 98.3542 79.6562 97.875L78.3125 49.7812ZM91.25 77.0938C92.25 77.0938 93.0833 77.0208 93.75 76.875C94.4167 76.7083 94.9375 76.4479 95.3125 76.0938C95.7083 75.7396 95.9792 75.2708 96.125 74.6875C96.2917 74.0833 96.3646 73.3438 96.3438 72.4688L95.9062 56.375C95.8854 55.5625 95.8021 54.9167 95.6562 54.4375C95.5104 53.9375 95.25 53.5521 94.875 53.2812C94.5 53.0104 93.9896 52.8333 93.3438 52.75C92.7188 52.6458 91.9062 52.5938 90.9062 52.5938H89.5938L88.9062 77.0938H91.25ZM16.3916 120L16.8975 109.753H18.4014L21.3408 117.771L24.2256 109.753H25.7295L26.2695 120H24.916L24.5605 111.79L21.7305 120H20.9375L17.9707 111.852L17.6699 120H16.3916ZM31.0615 119.159C31.7087 119.146 32.1576 119.098 32.4082 119.016C32.6634 118.934 32.791 118.772 32.791 118.53C32.8411 117.879 32.8662 117.124 32.8662 116.268C32.8662 115.985 32.8548 115.582 32.832 115.058C32.8092 114.529 32.7979 114.137 32.7979 113.882C32.7979 113.804 32.7842 113.734 32.7568 113.67C32.734 113.606 32.693 113.554 32.6338 113.513C32.5791 113.467 32.5221 113.428 32.4629 113.396C32.4082 113.365 32.3285 113.34 32.2236 113.321C32.1234 113.303 32.0368 113.287 31.9639 113.273C31.8955 113.26 31.7952 113.251 31.6631 113.246C31.5355 113.242 31.4352 113.239 31.3623 113.239C31.2939 113.239 31.1914 113.239 31.0547 113.239C30.918 113.239 30.8132 113.239 30.7402 113.239C30.6719 113.239 30.5716 113.242 30.4395 113.246C30.3118 113.251 30.2116 113.26 30.1387 113.273C30.0703 113.287 29.9837 113.303 29.8789 113.321C29.7786 113.34 29.6989 113.365 29.6396 113.396C29.585 113.428 29.528 113.467 29.4688 113.513C29.4141 113.554 29.373 113.606 29.3457 113.67C29.3229 113.734 29.3115 113.804 29.3115 113.882C29.3115 114.137 29.3001 114.529 29.2773 115.058C29.2546 115.582 29.2432 115.985 29.2432 116.268C29.2432 117.124 29.2682 117.879 29.3184 118.53C29.3184 118.772 29.4505 118.938 29.7148 119.029C29.9837 119.116 30.4326 119.159 31.0615 119.159ZM31.0479 120.103C30.542 120.103 30.1204 120.082 29.7832 120.041C29.446 120 29.1543 119.911 28.9082 119.774C28.6667 119.633 28.4821 119.485 28.3545 119.33C28.2269 119.171 28.1266 118.922 28.0537 118.585C27.9808 118.243 27.9352 117.906 27.917 117.573C27.9033 117.241 27.8965 116.778 27.8965 116.186C27.8965 115.743 27.901 115.374 27.9102 115.078C27.9238 114.782 27.9512 114.493 27.9922 114.21C28.0332 113.923 28.0833 113.693 28.1426 113.52C28.2064 113.342 28.2952 113.175 28.4092 113.021C28.5277 112.861 28.6598 112.74 28.8057 112.658C28.9515 112.576 29.1361 112.506 29.3594 112.446C29.5872 112.382 29.8333 112.341 30.0977 112.323C30.3665 112.3 30.6855 112.289 31.0547 112.289C31.4238 112.289 31.7406 112.3 32.0049 112.323C32.2738 112.341 32.5199 112.382 32.7432 112.446C32.971 112.506 33.1579 112.576 33.3037 112.658C33.4495 112.74 33.5794 112.861 33.6934 113.021C33.8118 113.175 33.9007 113.342 33.96 113.52C34.0238 113.693 34.0762 113.923 34.1172 114.21C34.1582 114.493 34.1833 114.782 34.1924 115.078C34.2061 115.374 34.2129 115.743 34.2129 116.186C34.2129 116.778 34.2038 117.241 34.1855 117.573C34.1719 117.906 34.1286 118.243 34.0557 118.585C33.9827 118.922 33.8802 119.171 33.748 119.33C33.6204 119.49 33.4336 119.638 33.1875 119.774C32.946 119.911 32.6566 120 32.3193 120.041C31.9821 120.082 31.5583 120.103 31.0479 120.103ZM42.1016 120H40.7549V115.447C40.7549 115.283 40.7572 115.076 40.7617 114.825C40.7708 114.575 40.7754 114.408 40.7754 114.326C40.7754 114.098 40.7572 113.923 40.7207 113.8C40.6888 113.677 40.6113 113.567 40.4883 113.472C40.3652 113.376 40.1921 113.312 39.9688 113.28C39.7454 113.248 39.4401 113.232 39.0527 113.232C38.8704 113.232 38.6973 113.244 38.5332 113.267C38.3737 113.285 38.221 113.319 38.0752 113.369C37.9294 113.415 37.8109 113.481 37.7197 113.567C37.6286 113.654 37.5785 113.757 37.5693 113.875C37.5055 114.695 37.4736 115.434 37.4736 116.09V120H36.1201V109.842L37.4736 109.732V113.068C37.8018 112.549 38.4808 112.289 39.5107 112.289C39.7796 112.294 40.0212 112.312 40.2354 112.344C40.4541 112.371 40.6478 112.405 40.8164 112.446C40.985 112.487 41.1331 112.544 41.2607 112.617C41.3883 112.69 41.4977 112.765 41.5889 112.843C41.68 112.92 41.7575 113.018 41.8213 113.137C41.8851 113.251 41.9352 113.362 41.9717 113.472C42.0081 113.581 42.0355 113.715 42.0537 113.875C42.0765 114.035 42.0902 114.185 42.0947 114.326C42.1038 114.463 42.1084 114.632 42.1084 114.832C42.1084 114.919 42.1061 115.06 42.1016 115.256C42.1016 115.447 42.1016 115.595 42.1016 115.7V120ZM49.7031 120H48.6367L48.418 118.927C48.2812 119.396 48.0329 119.711 47.6729 119.87C47.3174 120.025 46.7956 120.103 46.1074 120.103C45.6517 120.103 45.278 120.059 44.9863 119.973C44.6947 119.882 44.4622 119.731 44.2891 119.521C44.1159 119.312 43.9951 119.057 43.9268 118.756C43.863 118.451 43.8311 118.059 43.8311 117.58C43.8311 117.366 43.8675 117.174 43.9404 117.006C44.0179 116.837 44.1204 116.694 44.248 116.575C44.3802 116.457 44.5534 116.354 44.7676 116.268C44.9863 116.181 45.2119 116.113 45.4443 116.062C45.6768 116.012 45.957 115.974 46.2852 115.946C46.6178 115.914 46.9414 115.894 47.2559 115.885C47.5703 115.876 47.9372 115.871 48.3564 115.871V113.841C48.3564 113.608 48.2471 113.449 48.0283 113.362C47.8096 113.271 47.4199 113.226 46.8594 113.226C46.4674 113.226 46.1735 113.235 45.9775 113.253C45.7816 113.271 45.6312 113.326 45.5264 113.417C45.4261 113.504 45.3669 113.59 45.3486 113.677C45.335 113.763 45.3258 113.925 45.3213 114.162C45.3167 114.249 45.3145 114.317 45.3145 114.367L44.2686 114.326C44.2594 114.253 44.2549 114.146 44.2549 114.005C44.2549 113.7 44.2982 113.442 44.3848 113.232C44.4759 113.018 44.5921 112.852 44.7334 112.733C44.8747 112.61 45.0684 112.515 45.3145 112.446C45.5605 112.378 45.8044 112.335 46.0459 112.316C46.2874 112.298 46.5882 112.289 46.9482 112.289C47.4951 112.289 47.9395 112.332 48.2812 112.419C48.623 112.501 48.9033 112.651 49.1221 112.87C49.3408 113.089 49.4912 113.369 49.5732 113.711C49.6598 114.048 49.7031 114.49 49.7031 115.037V120ZM48.3564 117.854V116.685C47.4587 116.685 46.7682 116.719 46.2852 116.787C45.8021 116.855 45.4785 116.951 45.3145 117.074C45.1549 117.193 45.0752 117.361 45.0752 117.58C45.0752 117.589 45.0752 117.603 45.0752 117.621C45.0752 118.314 45.1322 118.744 45.2461 118.913C45.36 119.082 45.7087 119.166 46.292 119.166C46.7887 119.166 47.1921 119.107 47.502 118.988C47.8118 118.87 48.026 118.719 48.1445 118.537C48.2676 118.35 48.3382 118.122 48.3564 117.854ZM61.7275 120H60.3809V115.447C60.3809 114.932 60.3877 114.54 60.4014 114.271C60.4014 114.107 60.39 113.975 60.3672 113.875C60.3444 113.77 60.2943 113.663 60.2168 113.554C60.1393 113.444 60.0117 113.365 59.834 113.314C59.6562 113.26 59.4284 113.232 59.1504 113.232C58.8451 113.232 58.5876 113.253 58.3779 113.294C58.1729 113.33 58.0065 113.383 57.8789 113.451C57.7559 113.515 57.6602 113.608 57.5918 113.731C57.5234 113.854 57.4779 113.984 57.4551 114.121C57.4368 114.253 57.4277 114.426 57.4277 114.641C57.4277 114.741 57.43 114.921 57.4346 115.181C57.4437 115.436 57.4482 115.643 57.4482 115.803V120H56.1016V115.201C56.1016 115.178 56.1016 115.146 56.1016 115.105C56.1016 114.796 56.0993 114.575 56.0947 114.442C56.0902 114.306 56.0719 114.148 56.04 113.971C56.0127 113.788 55.9694 113.665 55.9102 113.602C55.8555 113.538 55.7689 113.469 55.6504 113.396C55.5319 113.324 55.3883 113.278 55.2197 113.26C55.0511 113.242 54.8369 113.232 54.5771 113.232C54.4131 113.232 54.2559 113.244 54.1055 113.267C53.9596 113.285 53.8184 113.317 53.6816 113.362C53.5449 113.408 53.4333 113.474 53.3467 113.561C53.2601 113.647 53.2145 113.75 53.21 113.868C53.1507 114.474 53.1211 115.14 53.1211 115.864V120H51.7744V112.501H53.0049L53.1348 113.321C53.3171 112.952 53.5791 112.69 53.9209 112.535C54.2627 112.38 54.6956 112.303 55.2197 112.303C55.7347 112.303 56.1449 112.385 56.4502 112.549C56.7555 112.713 56.9788 112.982 57.1201 113.355C57.4847 112.645 58.2048 112.289 59.2803 112.289C59.6312 112.289 59.9297 112.31 60.1758 112.351C60.4264 112.387 60.6452 112.458 60.832 112.562C61.0189 112.667 61.167 112.793 61.2764 112.938C61.3903 113.084 61.4814 113.28 61.5498 113.526C61.6182 113.768 61.6637 114.035 61.6865 114.326C61.7139 114.618 61.7275 114.976 61.7275 115.399V120ZM69.6914 116.145C69.1445 116.199 68.805 116.231 68.6729 116.24H64.9473C64.9518 116.901 64.9701 117.626 65.002 118.414C65.0247 118.719 65.1546 118.922 65.3916 119.022C65.6331 119.118 66.1003 119.166 66.793 119.166C67.0527 119.166 67.276 119.157 67.4629 119.139C67.6497 119.116 67.8001 119.079 67.9141 119.029C68.0326 118.975 68.1237 118.924 68.1875 118.879C68.2559 118.829 68.306 118.754 68.3379 118.653C68.3698 118.549 68.3903 118.462 68.3994 118.394C68.4085 118.321 68.4176 118.214 68.4268 118.072C68.4359 117.926 68.4473 117.808 68.4609 117.717L69.5068 117.908C69.4977 118.227 69.4749 118.498 69.4385 118.722C69.402 118.94 69.3405 119.134 69.2539 119.303C69.1673 119.471 69.0648 119.606 68.9463 119.706C68.8278 119.802 68.6683 119.882 68.4678 119.945C68.2673 120.009 68.0462 120.05 67.8047 120.068C67.5632 120.091 67.2646 120.103 66.9092 120.103C66.4535 120.103 66.057 120.075 65.7197 120.021C65.3825 119.97 65.0931 119.907 64.8516 119.829C64.6146 119.752 64.4186 119.626 64.2637 119.453C64.1087 119.275 63.9857 119.107 63.8945 118.947C63.8079 118.788 63.7441 118.553 63.7031 118.243C63.6621 117.933 63.6348 117.653 63.6211 117.402C63.612 117.147 63.6074 116.796 63.6074 116.35C63.6074 115.721 63.6143 115.231 63.6279 114.88C63.6462 114.529 63.6917 114.178 63.7646 113.827C63.8376 113.472 63.9355 113.214 64.0586 113.055C64.1816 112.895 64.3639 112.747 64.6055 112.61C64.847 112.474 65.1318 112.387 65.46 112.351C65.7881 112.31 66.2051 112.289 66.7109 112.289C67.0618 112.289 67.3649 112.3 67.6201 112.323C67.8753 112.341 68.11 112.382 68.3242 112.446C68.5384 112.51 68.7139 112.583 68.8506 112.665C68.9919 112.747 69.1149 112.868 69.2197 113.027C69.3291 113.187 69.4111 113.353 69.4658 113.526C69.5251 113.695 69.5729 113.921 69.6094 114.203C69.6458 114.486 69.6686 114.773 69.6777 115.064C69.6868 115.352 69.6914 115.712 69.6914 116.145ZM64.9541 115.522H68.3447C68.3356 114.939 68.3128 114.406 68.2764 113.923C68.2581 113.645 68.1374 113.46 67.9141 113.369C67.6953 113.273 67.292 113.226 66.7041 113.226C66.0524 113.226 65.64 113.262 65.4668 113.335C65.3893 113.358 65.321 113.399 65.2617 113.458C65.207 113.513 65.1615 113.592 65.125 113.697C65.0885 113.802 65.0589 113.9 65.0361 113.991C65.0179 114.082 65.002 114.21 64.9883 114.374C64.9792 114.534 64.9723 114.659 64.9678 114.75C64.9632 114.837 64.9587 114.971 64.9541 115.153C64.9541 115.336 64.9541 115.459 64.9541 115.522ZM77.4775 120H76.2471L76.1172 119.057C75.8392 119.754 75.1123 120.103 73.9365 120.103C73.6221 120.103 73.3395 120.082 73.0889 120.041C72.8428 120 72.6286 119.929 72.4463 119.829C72.2686 119.729 72.1159 119.626 71.9883 119.521C71.8607 119.412 71.7536 119.257 71.667 119.057C71.585 118.852 71.5189 118.667 71.4688 118.503C71.4232 118.334 71.389 118.102 71.3662 117.806C71.3434 117.509 71.3298 117.252 71.3252 117.033C71.3206 116.81 71.3184 116.509 71.3184 116.131C71.3184 115.762 71.3229 115.443 71.332 115.174C71.3457 114.905 71.3685 114.638 71.4004 114.374C71.4368 114.11 71.4824 113.889 71.5371 113.711C71.5964 113.529 71.6738 113.353 71.7695 113.185C71.8652 113.016 71.9792 112.882 72.1113 112.781C72.248 112.676 72.4098 112.585 72.5967 112.508C72.7835 112.426 72.9977 112.369 73.2393 112.337C73.4808 112.305 73.7542 112.289 74.0596 112.289C74.6475 112.289 75.1032 112.369 75.4268 112.528C75.7549 112.683 75.9896 112.932 76.1309 113.273V109.616L77.4775 109.507V120ZM76.1309 118.257V114.271C76.1309 113.875 76.0078 113.604 75.7617 113.458C75.5156 113.308 75.0531 113.232 74.374 113.232C73.8454 113.232 73.4535 113.271 73.1982 113.349C72.9886 113.412 72.8473 113.602 72.7744 113.916C72.7015 114.226 72.665 114.645 72.665 115.174C72.665 115.944 72.6787 117.022 72.7061 118.407C72.7288 118.708 72.8496 118.911 73.0684 119.016C73.2917 119.116 73.7269 119.166 74.374 119.166C75.012 119.166 75.4564 119.102 75.707 118.975C75.9622 118.847 76.1035 118.608 76.1309 118.257ZM88.1758 120H82.4062V109.814H88.1143L88.251 110.867H83.7939V114.142H87.6016V115.249H83.7939V118.954H88.3125L88.1758 120ZM91.3545 120H90.0078V109.842L91.3545 109.732V120ZM103.522 120H102.114L101.342 117.396H97.5752L96.8301 120H95.4971L98.6211 109.814H100.474L103.522 120ZM101.055 116.411L100.193 113.355L99.4824 110.854C99.2181 111.797 98.9857 112.608 98.7852 113.287L97.8691 116.411H101.055ZM108.239 112.33L108.185 113.472C108.011 113.449 107.847 113.438 107.692 113.438C107.369 113.438 107.107 113.469 106.906 113.533C106.706 113.597 106.553 113.706 106.448 113.861C106.348 114.016 106.28 114.194 106.243 114.395C106.211 114.59 106.195 114.855 106.195 115.188C106.195 115.374 106.202 115.648 106.216 116.008C106.234 116.368 106.243 116.625 106.243 116.78V120H104.896V112.501H106.12L106.257 113.342C106.398 113.014 106.612 112.761 106.899 112.583C107.187 112.401 107.531 112.31 107.932 112.31C108.032 112.31 108.134 112.316 108.239 112.33ZM115.656 112.501V119.05C115.656 119.501 115.64 119.882 115.608 120.191C115.581 120.501 115.526 120.791 115.444 121.06C115.367 121.328 115.26 121.543 115.123 121.702C114.986 121.866 114.804 122.007 114.576 122.126C114.353 122.244 114.089 122.326 113.783 122.372C113.478 122.418 113.111 122.44 112.683 122.44C111.789 122.44 111.078 122.347 110.55 122.16L110.639 121.23C111.149 121.372 111.755 121.442 112.457 121.442C112.79 121.442 113.07 121.424 113.298 121.388C113.53 121.351 113.71 121.306 113.838 121.251C113.97 121.196 114.07 121.117 114.139 121.012C114.212 120.911 114.257 120.811 114.275 120.711C114.298 120.611 114.31 120.483 114.31 120.328L114.303 119.104C114.18 119.424 113.968 119.656 113.667 119.802C113.366 119.948 112.942 120.021 112.396 120.021C112.004 120.021 111.662 119.993 111.37 119.938C111.078 119.884 110.83 119.815 110.625 119.733C110.42 119.651 110.249 119.524 110.112 119.351C109.98 119.173 109.875 119.007 109.798 118.852C109.72 118.692 109.663 118.466 109.627 118.175C109.59 117.879 109.568 117.614 109.559 117.382C109.549 117.145 109.545 116.824 109.545 116.418C109.545 115.903 109.549 115.5 109.559 115.208C109.568 114.916 109.588 114.602 109.62 114.265C109.652 113.923 109.704 113.665 109.777 113.492C109.85 113.319 109.944 113.144 110.058 112.966C110.176 112.784 110.329 112.654 110.516 112.576C110.702 112.499 110.921 112.435 111.172 112.385C111.427 112.335 111.73 112.31 112.081 112.31C112.678 112.31 113.157 112.392 113.517 112.556C113.877 112.715 114.139 112.975 114.303 113.335L114.433 112.501H115.656ZM114.31 118.476V114.306C114.31 113.923 114.182 113.649 113.927 113.485C113.676 113.317 113.225 113.232 112.573 113.232C111.935 113.232 111.498 113.289 111.261 113.403C111.006 113.526 110.878 114.025 110.878 114.9C110.878 116.217 110.896 117.366 110.933 118.346C110.946 118.56 111.001 118.717 111.097 118.817C111.197 118.918 111.366 118.988 111.603 119.029C111.84 119.066 112.211 119.084 112.717 119.084C113.733 119.084 114.264 118.881 114.31 118.476ZM120.694 119.159C121.341 119.146 121.79 119.098 122.041 119.016C122.296 118.934 122.424 118.772 122.424 118.53C122.474 117.879 122.499 117.124 122.499 116.268C122.499 115.985 122.488 115.582 122.465 115.058C122.442 114.529 122.431 114.137 122.431 113.882C122.431 113.804 122.417 113.734 122.39 113.67C122.367 113.606 122.326 113.554 122.267 113.513C122.212 113.467 122.155 113.428 122.096 113.396C122.041 113.365 121.961 113.34 121.856 113.321C121.756 113.303 121.67 113.287 121.597 113.273C121.528 113.26 121.428 113.251 121.296 113.246C121.168 113.242 121.068 113.239 120.995 113.239C120.927 113.239 120.824 113.239 120.688 113.239C120.551 113.239 120.446 113.239 120.373 113.239C120.305 113.239 120.204 113.242 120.072 113.246C119.945 113.251 119.844 113.26 119.771 113.273C119.703 113.287 119.617 113.303 119.512 113.321C119.411 113.34 119.332 113.365 119.272 113.396C119.218 113.428 119.161 113.467 119.102 113.513C119.047 113.554 119.006 113.606 118.979 113.67C118.956 113.734 118.944 113.804 118.944 113.882C118.944 114.137 118.933 114.529 118.91 115.058C118.887 115.582 118.876 115.985 118.876 116.268C118.876 117.124 118.901 117.879 118.951 118.53C118.951 118.772 119.083 118.938 119.348 119.029C119.617 119.116 120.065 119.159 120.694 119.159ZM120.681 120.103C120.175 120.103 119.753 120.082 119.416 120.041C119.079 120 118.787 119.911 118.541 119.774C118.299 119.633 118.115 119.485 117.987 119.33C117.86 119.171 117.759 118.922 117.687 118.585C117.614 118.243 117.568 117.906 117.55 117.573C117.536 117.241 117.529 116.778 117.529 116.186C117.529 115.743 117.534 115.374 117.543 115.078C117.557 114.782 117.584 114.493 117.625 114.21C117.666 113.923 117.716 113.693 117.775 113.52C117.839 113.342 117.928 113.175 118.042 113.021C118.16 112.861 118.293 112.74 118.438 112.658C118.584 112.576 118.769 112.506 118.992 112.446C119.22 112.382 119.466 112.341 119.73 112.323C119.999 112.3 120.318 112.289 120.688 112.289C121.057 112.289 121.373 112.3 121.638 112.323C121.907 112.341 122.153 112.382 122.376 112.446C122.604 112.506 122.791 112.576 122.937 112.658C123.082 112.74 123.212 112.861 123.326 113.021C123.445 113.175 123.534 113.342 123.593 113.52C123.657 113.693 123.709 113.923 123.75 114.21C123.791 114.493 123.816 114.782 123.825 115.078C123.839 115.374 123.846 115.743 123.846 116.186C123.846 116.778 123.837 117.241 123.818 117.573C123.805 117.906 123.761 118.243 123.688 118.585C123.616 118.922 123.513 119.171 123.381 119.33C123.253 119.49 123.066 119.638 122.82 119.774C122.579 119.911 122.289 120 121.952 120.041C121.615 120.082 121.191 120.103 120.681 120.103ZM131.666 120.007H130.422L130.299 119.043C130.18 119.403 129.921 119.67 129.52 119.843C129.123 120.016 128.638 120.103 128.063 120.103C127.672 120.103 127.341 120.064 127.072 119.986C126.803 119.909 126.578 119.797 126.396 119.651C126.218 119.501 126.079 119.294 125.979 119.029C125.883 118.76 125.814 118.462 125.773 118.134C125.737 117.801 125.719 117.389 125.719 116.896V112.501H127.065V116.855C127.065 116.956 127.063 117.092 127.059 117.266C127.059 117.434 127.059 117.553 127.059 117.621C127.059 117.863 127.063 118.052 127.072 118.188C127.081 118.325 127.104 118.46 127.141 118.592C127.182 118.724 127.234 118.822 127.298 118.886C127.362 118.945 127.457 119 127.585 119.05C127.713 119.1 127.858 119.132 128.022 119.146C128.191 119.159 128.405 119.166 128.665 119.166C128.957 119.166 129.205 119.146 129.41 119.104C129.615 119.063 129.777 119.011 129.896 118.947C130.014 118.879 130.103 118.788 130.162 118.674C130.226 118.56 130.267 118.448 130.285 118.339C130.303 118.229 130.312 118.093 130.312 117.929C130.312 117.874 130.31 117.785 130.306 117.662C130.306 117.539 130.306 117.446 130.306 117.382V112.501H131.666V120.007ZM139.944 115.823C139.944 116.17 139.942 116.457 139.938 116.685C139.933 116.912 139.924 117.161 139.91 117.43C139.896 117.699 139.876 117.92 139.849 118.093C139.821 118.261 139.785 118.444 139.739 118.64C139.694 118.831 139.637 118.986 139.568 119.104C139.5 119.223 139.418 119.344 139.322 119.467C139.227 119.59 139.115 119.686 138.987 119.754C138.86 119.822 138.714 119.886 138.55 119.945C138.386 120.005 138.201 120.046 137.996 120.068C137.791 120.091 137.563 120.103 137.312 120.103C136.118 120.103 135.392 119.754 135.132 119.057L135.009 120H133.778V109.616L135.125 109.507V113.328C135.275 112.973 135.517 112.711 135.85 112.542C136.182 112.373 136.633 112.289 137.203 112.289C137.513 112.289 137.791 112.31 138.037 112.351C138.288 112.387 138.504 112.449 138.687 112.535C138.873 112.622 139.035 112.72 139.172 112.829C139.309 112.934 139.423 113.071 139.514 113.239C139.605 113.403 139.678 113.57 139.732 113.738C139.792 113.907 139.837 114.112 139.869 114.354C139.901 114.59 139.922 114.818 139.931 115.037C139.94 115.256 139.944 115.518 139.944 115.823ZM138.598 114.798C138.598 114.602 138.595 114.456 138.591 114.36C138.591 114.26 138.582 114.144 138.563 114.012C138.55 113.88 138.529 113.786 138.502 113.731C138.475 113.677 138.431 113.613 138.372 113.54C138.317 113.463 138.249 113.41 138.167 113.383C138.09 113.355 137.987 113.328 137.859 113.301C137.736 113.269 137.597 113.251 137.442 113.246C137.287 113.237 137.101 113.232 136.882 113.232C136.422 113.232 136.062 113.267 135.802 113.335C135.547 113.399 135.362 113.508 135.248 113.663C135.166 113.818 135.125 114.169 135.125 114.716V118.161C135.125 118.535 135.257 118.797 135.521 118.947C135.786 119.093 136.242 119.166 136.889 119.166C137.531 119.166 137.973 119.109 138.215 118.995C138.475 118.904 138.604 118.444 138.604 117.614L138.598 114.798ZM143.26 120H141.913V112.501H143.26V120ZM143.26 109.603V110.785H141.913V109.603H143.26Z" fill="white"/>
</svg>
