<svg width="241" height="48" viewBox="0 0 241 48" fill="none" xmlns="http://www.w3.org/2000/svg">
<path d="M15.6245 20.64L11.7845 20.6C10.6112 20.6 9.71787 20.6133 9.10453 20.64C8.70453 24.1867 8.4912 27.2267 8.46453 29.76C14.7312 29.76 19.3845 29.2533 22.4245 28.24C22.1845 30.2133 21.5845 31.7467 20.6245 32.84C19.6645 33.9333 18.4645 34.48 17.0245 34.48C16.5979 34.48 15.3979 34.36 13.4245 34.12C11.4779 33.9067 9.4112 33.8 7.22453 33.8C5.03786 33.8 2.90453 34.0267 0.824531 34.48C1.11786 33.2267 1.75786 32.2 2.74453 31.4V31.24C2.74453 29.8 3.11786 26.52 3.86453 21.4C3.19786 21.64 2.62453 21.8533 2.14453 22.04C2.0912 21.4533 2.06453 21.0133 2.06453 20.72C2.06453 18.9333 2.8512 17.8 4.42453 17.32C4.90453 13.8 5.22453 10.6267 5.38453 7.8C4.39786 7.74667 3.7712 7.52 3.50453 7.12C3.23786 6.72 3.10453 5.93333 3.10453 4.76C3.18453 3.56 3.2912 2.77333 3.42453 2.4C6.4112 2.8 9.70453 3 13.3045 3C16.9312 3 20.4245 2.68 23.7845 2.04C23.4112 4.84 21.7045 6.52 18.6645 7.08C16.8779 7.42667 14.2245 7.65333 10.7045 7.76C10.6779 8.05333 10.2912 11.1467 9.54453 17.04C11.1445 17.0933 12.2512 17.12 12.8645 17.12C15.3979 17.12 17.1979 16.68 18.2645 15.8C18.3179 16.3333 18.3445 16.7333 18.3445 17C18.3445 19.4267 17.4379 20.64 15.6245 20.64ZM25.4989 34.48C25.8989 32.9333 26.7122 31.76 27.9389 30.96C27.8056 30.4267 27.7389 29.6933 27.7389 28.76C27.7389 27.8 28.0189 25.2533 28.5789 21.12C29.5656 14.2667 30.0589 8.96 30.0589 5.2C30.0589 4.4 30.0056 3.30666 29.8989 1.92C31.9256 2.02667 33.4056 2.34666 34.3389 2.88C34.7389 3.09333 35.0456 3.42667 35.2589 3.88C35.4722 4.30667 35.5922 4.70666 35.6189 5.08C35.6722 5.45333 35.6989 6.13333 35.6989 7.12C35.6989 8.10666 35.2856 11.3467 34.4589 16.84C33.6589 22.3067 33.1922 26.6133 33.0589 29.76C39.3789 29.76 44.0589 29.2533 47.0989 28.24C46.8589 30.2133 46.2589 31.7467 45.2989 32.84C44.3389 33.9333 43.1389 34.48 41.6989 34.48C41.2722 34.48 40.0722 34.36 38.0989 34.12C36.1522 33.9067 34.0856 33.8 31.8989 33.8C29.7122 33.8 27.5789 34.0267 25.4989 34.48ZM81.097 34.64C80.137 34.64 79.4304 34.4 78.977 33.92C78.5237 33.4133 78.137 32.6667 77.817 31.68C77.497 30.6667 76.8704 27.9733 75.937 23.6C75.3237 24.1333 74.3237 24.4267 72.937 24.48L66.097 24.72C64.4704 28.6933 63.2704 32.2267 62.497 35.32C59.937 34.4133 58.657 33.3867 58.657 32.24C58.657 31.7333 59.4304 29.84 60.977 26.56C62.5237 23.28 64.2704 19.56 66.217 15.4C68.1904 11.2133 69.5237 8.17333 70.217 6.28L70.937 4.32C70.7237 3.94666 70.2037 3.26666 69.377 2.28C70.337 1.96 71.1637 1.8 71.857 1.8C72.577 1.8 73.1637 1.85333 73.617 1.96C74.097 2.06666 74.5104 2.25333 74.857 2.52C75.2304 2.76 75.5504 3.01333 75.817 3.28C76.1104 3.54667 76.377 3.94667 76.617 4.48C76.857 4.98667 77.057 5.45333 77.217 5.88C77.377 6.28 77.5504 6.85333 77.737 7.6C77.9504 8.34667 78.1104 9 78.217 9.56C78.3504 10.0933 78.5104 10.8533 78.697 11.84C78.9104 12.8 79.1237 13.7333 79.337 14.64C79.5504 15.5467 79.9237 17.28 80.457 19.84C80.9904 22.3733 81.4037 24.28 81.697 25.56C82.017 26.8133 82.457 28.2267 83.017 29.8C83.6037 31.3733 84.217 32.6133 84.857 33.52C83.3104 34.2667 82.057 34.64 81.097 34.64ZM72.777 9.64C72.4037 10.4933 71.577 12.32 70.297 15.12C69.0437 17.8933 68.0704 20.1067 67.377 21.76H75.577C74.3237 16 73.3904 11.96 72.777 9.64ZM92.5183 34.68C90.9983 34.68 89.9049 34.4133 89.2383 33.88C88.5716 33.3467 88.2383 32.4533 88.2383 31.2C88.2383 29.9467 88.6783 26.16 89.5583 19.84C90.4649 13.4933 90.9183 8.97333 90.9183 6.28C90.9183 3.56 90.7316 1.78667 90.3583 0.959999C93.0516 1.17333 94.8383 2.22667 95.7183 4.12C97.6383 3.05333 99.8116 2.52 102.238 2.52C104.692 2.52 106.692 3.22666 108.238 4.64C109.812 6.02667 110.598 7.64 110.598 9.48C110.598 11.32 109.972 13.16 108.718 15C107.465 16.8133 105.598 18.1867 103.118 19.12L103.638 20.68C104.598 23.6667 105.985 26.6267 107.798 29.56C109.612 32.4667 111.092 34.4533 112.238 35.52C111.252 35.7867 110.265 35.92 109.278 35.92C108.318 35.92 107.345 35.6 106.358 34.96C105.372 34.3467 104.545 33.6667 103.878 32.92C103.238 32.1733 102.518 30.9867 101.718 29.36C100.918 27.7333 100.345 26.4667 99.9983 25.56C99.6516 24.6533 99.2649 23.6533 98.8383 22.56C98.4383 21.4667 98.2249 20.88 98.1983 20.8C98.1716 20.72 98.1316 20.6267 98.0783 20.52C98.0249 20.3867 97.9849 20.2667 97.9583 20.16C97.3716 20.16 96.7983 20.16 96.2383 20.16L96.1183 18.32C99.5049 18.1867 102.025 16.9733 103.678 14.68C104.585 13.4 105.038 12.0933 105.038 10.76C105.038 10.2533 104.985 9.76 104.878 9.28C104.425 7.54667 103.345 6.46667 101.638 6.04C101.158 5.90666 100.492 5.84 99.6383 5.84C98.7849 5.84 97.6516 6.12 96.2383 6.68C96.2383 7.69333 95.8516 11.0133 95.0783 16.64C94.3316 22.24 93.9583 26.92 93.9583 30.68C93.9583 32.36 94.0383 33.6667 94.1983 34.6C93.3449 34.6533 92.7849 34.68 92.5183 34.68ZM123.43 44.24C127.884 44.24 130.417 39 131.03 28.52C130.044 29.9333 128.857 31.0133 127.47 31.76C126.084 32.48 124.657 32.84 123.19 32.84C120.63 32.84 118.43 31.8 116.59 29.72C114.75 27.64 113.83 24.7467 113.83 21.04C113.83 15.9467 115.15 11.52 117.79 7.76C119.07 5.92 120.724 4.46667 122.75 3.4C124.777 2.30666 127.084 1.76 129.67 1.76C132.284 1.76 134.27 2.44 135.63 3.8C137.017 5.13333 137.71 6.78666 137.71 8.76C137.71 10.7333 137.097 12.2933 135.87 13.44C134.644 14.5867 133.19 15.16 131.51 15.16C130.417 15.16 129.377 14.8933 128.39 14.36C127.404 13.8267 126.644 13.0533 126.11 12.04C126.83 12.2267 127.51 12.32 128.15 12.32C129.59 12.32 130.724 11.9067 131.55 11.08C132.404 10.2533 132.83 9.32 132.83 8.28C132.83 7.24 132.484 6.38667 131.79 5.72C131.097 5.02667 130.11 4.68 128.83 4.68C127.15 4.68 125.617 5.54667 124.23 7.28C122.87 8.98667 121.844 11.0667 121.15 13.52C120.457 15.9467 120.11 18.4667 120.11 21.08C120.11 23.6933 120.617 25.7467 121.63 27.24C122.67 28.7067 123.924 29.44 125.39 29.44C126.857 29.44 128.124 28.72 129.19 27.28C130.284 25.84 130.83 23.8933 130.83 21.44C130.83 20.8267 130.79 20.2 130.71 19.56V19.44C131.297 19.3867 131.91 19.36 132.55 19.36C134.097 19.36 135.164 19.6267 135.75 20.16C136.364 20.6667 136.67 21.5467 136.67 22.8C136.67 30.9333 135.217 37.28 132.31 41.84C131.297 43.4133 129.977 44.6933 128.35 45.68C126.724 46.6667 124.884 47.16 122.83 47.16C120.03 47.16 117.924 46.44 116.51 45C115.124 43.5867 114.43 41.96 114.43 40.12C114.43 38.28 114.924 36.8 115.91 35.68C116.897 34.5867 118.124 34.04 119.59 34.04C120.39 34.04 121.27 34.2667 122.23 34.72C120.817 36.5067 120.11 38.3867 120.11 40.36C120.11 41.5067 120.377 42.44 120.91 43.16C121.444 43.88 122.284 44.24 123.43 44.24ZM163.731 16C163.731 12.2667 163.211 9.56 162.171 7.88C161.158 6.2 159.758 5.36 157.971 5.36C156.211 5.36 154.531 6.14667 152.931 7.72C151.358 9.26667 150.118 11.2267 149.211 13.6C148.331 15.9733 147.891 18.3733 147.891 20.8C147.891 24.1333 148.438 26.8667 149.531 29C150.651 31.1333 152.331 32.2 154.571 32.2C156.438 32.2 158.078 31.3867 159.491 29.76C160.931 28.1067 161.998 26.0667 162.691 23.64C163.385 21.2133 163.731 18.6667 163.731 16ZM164.451 30.64C163.251 31.9467 161.745 33 159.931 33.8C158.145 34.6 156.185 35 154.051 35C151.918 35 150.038 34.52 148.411 33.56C146.811 32.6 145.531 31.32 144.571 29.72C142.651 26.52 141.691 22.7867 141.691 18.52C141.691 14.2533 142.745 10.4533 144.851 7.12C146.985 3.78666 149.825 1.68 153.371 0.799998C153.585 0.853331 153.785 0.959998 153.971 1.12C154.185 1.28 154.305 1.45333 154.331 1.64C150.891 4.14667 148.811 7.56 148.091 11.88C149.211 8.73333 150.891 6.28 153.131 4.52C155.398 2.73333 157.825 1.84 160.411 1.84C162.998 1.84 165.198 2.96 167.011 5.2C168.851 7.41333 169.771 10.6267 169.771 14.84C169.771 18.9733 168.998 22.6933 167.451 26C166.651 27.76 165.651 29.3067 164.451 30.64ZM198.722 3.88C198.935 4.30667 199.055 4.70666 199.082 5.08C199.135 5.45333 199.162 6.13333 199.162 7.12C199.162 8.10666 198.722 11.6133 197.842 17.64C196.962 23.6667 196.522 27.8933 196.522 30.32C196.522 32.72 196.708 34.36 197.082 35.24C194.815 34.6533 193.268 33.88 192.442 32.92C191.615 31.9333 191.202 30.5733 191.202 28.84C191.202 28.3067 191.215 27.8933 191.242 27.6C188.815 32.4 185.495 34.8 181.282 34.8C179.042 34.8 177.362 34.04 176.242 32.52C175.122 30.9733 174.562 28.5333 174.562 25.2C174.562 23.3067 174.855 19.8933 175.442 14.96C176.055 10.0267 176.362 6.82667 176.362 5.36C176.362 3.86667 176.215 2.72 175.922 1.92C178.135 2.48 179.655 3.22667 180.482 4.16C181.335 5.06667 181.762 6.36 181.762 8.04C181.762 9.69333 181.495 12.3467 180.962 16C180.428 19.6267 180.162 22.56 180.162 24.8C180.162 27.0133 180.482 28.5867 181.122 29.52C181.762 30.4533 182.655 30.92 183.802 30.92C185.162 30.92 186.482 30.32 187.762 29.12C190.375 26.64 192.082 21.88 192.882 14.84V14.76C193.308 11.0533 193.522 8.33333 193.522 6.6C193.522 4.86666 193.468 3.30666 193.362 1.92C195.388 2.02667 196.868 2.34666 197.802 2.88C198.202 3.09333 198.508 3.42667 198.722 3.88ZM204.957 31.88C204.984 31.6667 205.277 29.68 205.837 25.92C207.01 18.08 207.597 10.9733 207.597 4.6C207.597 2.49333 207.41 0.999999 207.037 0.119998C209.89 0.866664 211.677 2.04 212.397 3.64C214.45 2.49333 216.624 1.92 218.917 1.92C221.21 1.92 223.077 2.57333 224.517 3.88C225.984 5.16 226.717 6.73333 226.717 8.6C226.717 10.44 226.05 12.16 224.717 13.76C223.384 15.3333 221.557 16.5067 219.237 17.28C221.104 17.68 222.81 18.5867 224.357 20C225.93 21.3867 226.717 23.1067 226.717 25.16C226.717 28.3067 225.544 30.7333 223.197 32.44C220.877 34.12 217.93 34.96 214.357 34.96C210.81 34.96 207.677 33.9333 204.957 31.88ZM221.077 9.52C221.077 8.32 220.704 7.32 219.957 6.52C219.21 5.69333 218.157 5.28 216.797 5.28C215.437 5.28 214.13 5.56 212.877 6.12C212.877 7.74667 212.517 11.84 211.797 18.4C211.104 24.96 210.757 29.16 210.757 31C211.93 31.48 213.064 31.72 214.157 31.72C216.05 31.72 217.61 31.0933 218.837 29.84C220.064 28.5867 220.677 27.0133 220.677 25.12C220.677 23.2267 220.037 21.6533 218.757 20.4C217.477 19.12 215.69 18.4267 213.397 18.32L213.277 16.88C215.73 16.5333 217.637 15.64 218.997 14.2C220.384 12.7333 221.077 11.1733 221.077 9.52ZM239.625 3.88C239.839 4.30667 239.959 4.70666 239.985 5.08C240.039 5.45333 240.065 6.13333 240.065 7.12C240.065 8.10666 239.625 11.6133 238.745 17.64C237.865 23.6667 237.425 27.8933 237.425 30.32C237.425 32.72 237.612 34.36 237.985 35.24C235.719 34.6533 234.172 33.88 233.345 32.92C232.519 31.9333 232.105 30.5733 232.105 28.84C232.105 27.8267 232.385 25.2533 232.945 21.12C233.932 14.2667 234.425 8.96 234.425 5.2C234.425 4.4 234.372 3.30666 234.265 1.92C236.292 2.02667 237.772 2.34666 238.705 2.88C239.105 3.09333 239.412 3.42667 239.625 3.88Z" fill="white"/>
</svg>
